<mxfile host="app.diagrams.net" modified="2023-05-23T18:15:06.123Z" agent="Mozilla/5.0 (Windows NT 10.0; Win64; x64) AppleWebKit/537.36 (KHTML, like Gecko) Chrome/113.0.0.0 Safari/537.36 Edg/113.0.1774.50" etag="sirbVJCKdj6GbLg6p0lm" version="21.3.2" type="device">
  <diagram name="페이지-1" id="ILwJe-R39LQmXGecDIhm">
    <mxGraphModel dx="2446" dy="1138" grid="1" gridSize="10" guides="1" tooltips="1" connect="1" arrows="1" fold="1" page="1" pageScale="1" pageWidth="827" pageHeight="1169" math="0" shadow="0">
      <root>
        <mxCell id="0" />
        <mxCell id="1" parent="0" />
        <mxCell id="vG6tSXVW1lOoziyycAbv-1" value="&lt;p style=&quot;margin: 0px; line-height: 100%; font-size: 20px;&quot; align=&quot;center&quot;&gt;visitBusan(비짓부산) 사이트&amp;nbsp;&lt;/p&gt;&lt;p style=&quot;margin: 0px; line-height: 100%; font-size: 20px;&quot; align=&quot;center&quot;&gt;https://www.visitbusan.net/kr/index.do&lt;/p&gt;" style="rounded=0;whiteSpace=wrap;html=1;fontSize=20;" parent="1" vertex="1">
          <mxGeometry x="-620" y="40" width="400" height="80" as="geometry" />
        </mxCell>
        <mxCell id="vG6tSXVW1lOoziyycAbv-3" value="" style="endArrow=none;html=1;rounded=0;entryX=0.5;entryY=1;entryDx=0;entryDy=0;" parent="1" target="vG6tSXVW1lOoziyycAbv-1" edge="1">
          <mxGeometry width="50" height="50" relative="1" as="geometry">
            <mxPoint x="-420" y="160" as="sourcePoint" />
            <mxPoint x="-320" y="190" as="targetPoint" />
          </mxGeometry>
        </mxCell>
        <mxCell id="vG6tSXVW1lOoziyycAbv-4" value="" style="endArrow=none;html=1;rounded=0;" parent="1" edge="1">
          <mxGeometry width="50" height="50" relative="1" as="geometry">
            <mxPoint x="-1070" y="160" as="sourcePoint" />
            <mxPoint x="230" y="160" as="targetPoint" />
          </mxGeometry>
        </mxCell>
        <mxCell id="vG6tSXVW1lOoziyycAbv-5" value="" style="endArrow=none;html=1;rounded=0;" parent="1" edge="1">
          <mxGeometry width="50" height="50" relative="1" as="geometry">
            <mxPoint x="-1070" y="180" as="sourcePoint" />
            <mxPoint x="-1070" y="160" as="targetPoint" />
          </mxGeometry>
        </mxCell>
        <mxCell id="vG6tSXVW1lOoziyycAbv-7" value="" style="endArrow=none;html=1;rounded=0;entryX=0.5;entryY=1;entryDx=0;entryDy=0;exitX=0.5;exitY=0;exitDx=0;exitDy=0;" parent="1" source="vG6tSXVW1lOoziyycAbv-10" target="vG6tSXVW1lOoziyycAbv-9" edge="1">
          <mxGeometry width="50" height="50" relative="1" as="geometry">
            <mxPoint x="-1050" y="90" as="sourcePoint" />
            <mxPoint x="-1050" y="70" as="targetPoint" />
          </mxGeometry>
        </mxCell>
        <mxCell id="vG6tSXVW1lOoziyycAbv-9" value="&lt;p style=&quot;margin: 0px; line-height: 100%; font-size: 20px;&quot; align=&quot;center&quot;&gt;테마여행&lt;/p&gt;&lt;p style=&quot;margin: 0px; line-height: 100%;&quot; align=&quot;center&quot;&gt;VisitListbyCateCode.do?cateCode=&quot;0101&quot;&lt;br&gt;&lt;/p&gt;" style="rounded=0;whiteSpace=wrap;html=1;fontSize=20;" parent="1" vertex="1">
          <mxGeometry x="-1190" y="180" width="240" height="80" as="geometry" />
        </mxCell>
        <mxCell id="vG6tSXVW1lOoziyycAbv-10" value="&lt;p style=&quot;margin: 0px; line-height: 100%; font-size: 20px;&quot; align=&quot;center&quot;&gt;미식여행&lt;/p&gt;&lt;p style=&quot;margin: 0px; line-height: 20px;&quot; align=&quot;center&quot;&gt;VisitListbyCateCode.do?cateCode=&quot;0102&quot;&lt;/p&gt;" style="rounded=0;whiteSpace=wrap;html=1;fontSize=20;" parent="1" vertex="1">
          <mxGeometry x="-1190" y="280" width="240" height="80" as="geometry" />
        </mxCell>
        <mxCell id="vG6tSXVW1lOoziyycAbv-13" value="&lt;p style=&quot;margin: 0px; line-height: 100%;&quot; align=&quot;center&quot;&gt;야구&lt;/p&gt;&lt;p style=&quot;margin: 0px; line-height: 100%;&quot; align=&quot;center&quot;&gt;VisitListbyCateCode.do?cateCode=&quot;0201&quot;&lt;br&gt;&lt;/p&gt;" style="rounded=0;whiteSpace=wrap;html=1;fontSize=20;" parent="1" vertex="1">
          <mxGeometry x="-930" y="180" width="240" height="80" as="geometry" />
        </mxCell>
        <mxCell id="vG6tSXVW1lOoziyycAbv-14" value="" style="endArrow=none;html=1;rounded=0;exitX=0.5;exitY=0;exitDx=0;exitDy=0;" parent="1" source="vG6tSXVW1lOoziyycAbv-13" edge="1">
          <mxGeometry width="50" height="50" relative="1" as="geometry">
            <mxPoint x="-810.5" y="180" as="sourcePoint" />
            <mxPoint x="-810" y="160" as="targetPoint" />
          </mxGeometry>
        </mxCell>
        <mxCell id="vG6tSXVW1lOoziyycAbv-16" value="" style="endArrow=none;html=1;rounded=0;" parent="1" edge="1">
          <mxGeometry width="50" height="50" relative="1" as="geometry">
            <mxPoint x="-810.5" y="280" as="sourcePoint" />
            <mxPoint x="-810.5" y="260" as="targetPoint" />
          </mxGeometry>
        </mxCell>
        <mxCell id="vG6tSXVW1lOoziyycAbv-17" value="&lt;p style=&quot;margin: 0px; line-height: 100%;&quot; align=&quot;center&quot;&gt;국제영화제&lt;/p&gt;&lt;p style=&quot;margin: 0px; line-height: 100%;&quot; align=&quot;center&quot;&gt;VisitListbyCateCode.do?cateCode=&quot;0202&quot;&lt;br&gt;&lt;/p&gt;" style="rounded=0;whiteSpace=wrap;html=1;fontSize=20;" parent="1" vertex="1">
          <mxGeometry x="-930" y="280" width="240" height="80" as="geometry" />
        </mxCell>
        <mxCell id="vG6tSXVW1lOoziyycAbv-21" value="&lt;p style=&quot;margin: 0px; line-height: 100%;&quot; align=&quot;center&quot;&gt;공지사항&lt;/p&gt;&lt;p style=&quot;margin: 0px; line-height: 100%;&quot; align=&quot;center&quot;&gt;NotiList.do&lt;br&gt;&lt;/p&gt;" style="rounded=0;whiteSpace=wrap;html=1;fontSize=20;" parent="1" vertex="1">
          <mxGeometry x="-670" y="180" width="240" height="80" as="geometry" />
        </mxCell>
        <mxCell id="vG6tSXVW1lOoziyycAbv-22" value="" style="endArrow=none;html=1;rounded=0;exitX=0.5;exitY=0;exitDx=0;exitDy=0;" parent="1" source="vG6tSXVW1lOoziyycAbv-21" edge="1">
          <mxGeometry width="50" height="50" relative="1" as="geometry">
            <mxPoint x="-550.5" y="180" as="sourcePoint" />
            <mxPoint x="-550" y="160" as="targetPoint" />
          </mxGeometry>
        </mxCell>
        <mxCell id="vG6tSXVW1lOoziyycAbv-23" value="&lt;p style=&quot;margin: 0px; line-height: 100%;&quot; align=&quot;center&quot;&gt;공지사항 작성하기 NotiInsert.do&lt;br&gt;&lt;/p&gt;" style="rounded=0;whiteSpace=wrap;html=1;fontSize=20;" parent="1" vertex="1">
          <mxGeometry x="-670" y="280" width="240" height="80" as="geometry" />
        </mxCell>
        <mxCell id="vG6tSXVW1lOoziyycAbv-24" value="" style="endArrow=none;html=1;rounded=0;exitX=0.5;exitY=0;exitDx=0;exitDy=0;" parent="1" source="vG6tSXVW1lOoziyycAbv-23" edge="1">
          <mxGeometry width="50" height="50" relative="1" as="geometry">
            <mxPoint x="-550.5" y="280" as="sourcePoint" />
            <mxPoint x="-550" y="260" as="targetPoint" />
          </mxGeometry>
        </mxCell>
        <mxCell id="vG6tSXVW1lOoziyycAbv-25" value="&lt;p style=&quot;margin: 0px; line-height: 100%;&quot; align=&quot;center&quot;&gt;공지사항 수정하기 NotiUpdate.do&lt;br&gt;&lt;/p&gt;" style="rounded=0;whiteSpace=wrap;html=1;fontSize=20;" parent="1" vertex="1">
          <mxGeometry x="-670" y="380" width="240" height="80" as="geometry" />
        </mxCell>
        <mxCell id="vG6tSXVW1lOoziyycAbv-26" value="" style="endArrow=none;html=1;rounded=0;exitX=0.5;exitY=0;exitDx=0;exitDy=0;" parent="1" source="vG6tSXVW1lOoziyycAbv-25" edge="1">
          <mxGeometry width="50" height="50" relative="1" as="geometry">
            <mxPoint x="-550.5" y="380" as="sourcePoint" />
            <mxPoint x="-550" y="360" as="targetPoint" />
          </mxGeometry>
        </mxCell>
        <mxCell id="vG6tSXVW1lOoziyycAbv-27" value="&lt;p style=&quot;margin: 0px; line-height: 100%;&quot; align=&quot;center&quot;&gt;공지사항 삭제하기 NotiDelete.do&lt;br&gt;&lt;/p&gt;" style="rounded=0;whiteSpace=wrap;html=1;fontSize=20;" parent="1" vertex="1">
          <mxGeometry x="-670" y="480" width="240" height="80" as="geometry" />
        </mxCell>
        <mxCell id="vG6tSXVW1lOoziyycAbv-28" value="" style="endArrow=none;html=1;rounded=0;exitX=0.5;exitY=0;exitDx=0;exitDy=0;" parent="1" source="vG6tSXVW1lOoziyycAbv-27" edge="1">
          <mxGeometry width="50" height="50" relative="1" as="geometry">
            <mxPoint x="-550.5" y="480" as="sourcePoint" />
            <mxPoint x="-550" y="460" as="targetPoint" />
          </mxGeometry>
        </mxCell>
        <mxCell id="vG6tSXVW1lOoziyycAbv-29" value="&lt;p style=&quot;margin: 0px; line-height: 100%;&quot; align=&quot;center&quot;&gt;랭킹 &lt;/p&gt;&lt;p style=&quot;margin: 0px; line-height: 100%;&quot; align=&quot;center&quot;&gt;Rank.do&lt;br&gt;&lt;/p&gt;" style="rounded=0;whiteSpace=wrap;html=1;fontSize=20;" parent="1" vertex="1">
          <mxGeometry x="-410" y="180" width="240" height="80" as="geometry" />
        </mxCell>
        <mxCell id="vG6tSXVW1lOoziyycAbv-30" value="" style="endArrow=none;html=1;rounded=0;exitX=0.5;exitY=0;exitDx=0;exitDy=0;" parent="1" source="vG6tSXVW1lOoziyycAbv-29" edge="1">
          <mxGeometry width="50" height="50" relative="1" as="geometry">
            <mxPoint x="-290.5" y="180" as="sourcePoint" />
            <mxPoint x="-290" y="160" as="targetPoint" />
          </mxGeometry>
        </mxCell>
        <mxCell id="vG6tSXVW1lOoziyycAbv-32" value="&lt;p style=&quot;margin: 0px; line-height: 100%;&quot; align=&quot;center&quot;&gt;Q&amp;amp;A&lt;/p&gt;&lt;p style=&quot;margin: 0px; line-height: 100%;&quot; align=&quot;center&quot;&gt;QnAList.do&lt;br&gt;&lt;/p&gt;" style="rounded=0;whiteSpace=wrap;html=1;fontSize=20;" parent="1" vertex="1">
          <mxGeometry x="-150" y="180" width="240" height="80" as="geometry" />
        </mxCell>
        <mxCell id="vG6tSXVW1lOoziyycAbv-33" value="" style="endArrow=none;html=1;rounded=0;exitX=0.5;exitY=0;exitDx=0;exitDy=0;" parent="1" source="vG6tSXVW1lOoziyycAbv-32" edge="1">
          <mxGeometry width="50" height="50" relative="1" as="geometry">
            <mxPoint x="-30.5" y="180" as="sourcePoint" />
            <mxPoint x="-30" y="160" as="targetPoint" />
          </mxGeometry>
        </mxCell>
        <mxCell id="vG6tSXVW1lOoziyycAbv-34" value="&lt;p style=&quot;margin: 0px; line-height: 100%;&quot; align=&quot;center&quot;&gt;Q&amp;amp;A 상세보기QnADetail.do?qno=&quot;2&quot;&lt;br&gt;&lt;/p&gt;" style="rounded=0;whiteSpace=wrap;html=1;fontSize=20;" parent="1" vertex="1">
          <mxGeometry x="-150" y="280" width="240" height="80" as="geometry" />
        </mxCell>
        <mxCell id="vG6tSXVW1lOoziyycAbv-35" value="" style="endArrow=none;html=1;rounded=0;exitX=0.5;exitY=0;exitDx=0;exitDy=0;" parent="1" source="vG6tSXVW1lOoziyycAbv-34" edge="1">
          <mxGeometry width="50" height="50" relative="1" as="geometry">
            <mxPoint x="-30.5" y="280" as="sourcePoint" />
            <mxPoint x="-30" y="260" as="targetPoint" />
          </mxGeometry>
        </mxCell>
        <mxCell id="vG6tSXVW1lOoziyycAbv-36" value="&lt;p style=&quot;margin: 0px; line-height: 100%;&quot; align=&quot;center&quot;&gt;Q&amp;amp;A 작성하기QnAInsert.do&lt;br&gt;&lt;/p&gt;" style="rounded=0;whiteSpace=wrap;html=1;fontSize=20;" parent="1" vertex="1">
          <mxGeometry x="-150" y="380" width="240" height="80" as="geometry" />
        </mxCell>
        <mxCell id="vG6tSXVW1lOoziyycAbv-37" value="" style="endArrow=none;html=1;rounded=0;exitX=0.5;exitY=0;exitDx=0;exitDy=0;" parent="1" source="vG6tSXVW1lOoziyycAbv-36" edge="1">
          <mxGeometry width="50" height="50" relative="1" as="geometry">
            <mxPoint x="-30.5" y="380" as="sourcePoint" />
            <mxPoint x="-30" y="360" as="targetPoint" />
          </mxGeometry>
        </mxCell>
        <mxCell id="vG6tSXVW1lOoziyycAbv-38" value="&lt;p style=&quot;margin: 0px; line-height: 100%;&quot; align=&quot;center&quot;&gt;Q&amp;amp;A 수정하기 QnAUpdate.do?qno=&quot;2&quot;&lt;br&gt;&lt;/p&gt;" style="rounded=0;whiteSpace=wrap;html=1;fontSize=20;" parent="1" vertex="1">
          <mxGeometry x="-150" y="480" width="240" height="80" as="geometry" />
        </mxCell>
        <mxCell id="vG6tSXVW1lOoziyycAbv-39" value="" style="endArrow=none;html=1;rounded=0;exitX=0.5;exitY=0;exitDx=0;exitDy=0;" parent="1" source="vG6tSXVW1lOoziyycAbv-38" edge="1">
          <mxGeometry width="50" height="50" relative="1" as="geometry">
            <mxPoint x="-30.5" y="480" as="sourcePoint" />
            <mxPoint x="-30" y="460" as="targetPoint" />
          </mxGeometry>
        </mxCell>
        <mxCell id="vG6tSXVW1lOoziyycAbv-41" value="&lt;p style=&quot;margin: 0px; line-height: 100%;&quot; align=&quot;center&quot;&gt;Q&amp;amp;A 삭제하기QnADelete.do?qno=&quot;2&quot;&lt;br&gt;&lt;/p&gt;" style="rounded=0;whiteSpace=wrap;html=1;fontSize=20;" parent="1" vertex="1">
          <mxGeometry x="-150" y="580" width="240" height="80" as="geometry" />
        </mxCell>
        <mxCell id="vG6tSXVW1lOoziyycAbv-42" value="" style="endArrow=none;html=1;rounded=0;exitX=0.5;exitY=0;exitDx=0;exitDy=0;" parent="1" source="vG6tSXVW1lOoziyycAbv-41" edge="1">
          <mxGeometry width="50" height="50" relative="1" as="geometry">
            <mxPoint x="-30.5" y="580" as="sourcePoint" />
            <mxPoint x="-30" y="560" as="targetPoint" />
          </mxGeometry>
        </mxCell>
        <mxCell id="vG6tSXVW1lOoziyycAbv-45" value="&lt;p style=&quot;margin: 0px; line-height: 100%;&quot; align=&quot;center&quot;&gt;로그인&lt;/p&gt;&lt;p style=&quot;margin: 0px; line-height: 100%;&quot; align=&quot;center&quot;&gt;UserLogin.do&lt;br&gt;&lt;/p&gt;" style="rounded=0;whiteSpace=wrap;html=1;fontSize=20;" parent="1" vertex="1">
          <mxGeometry x="110" y="180" width="240" height="80" as="geometry" />
        </mxCell>
        <mxCell id="vG6tSXVW1lOoziyycAbv-46" value="" style="endArrow=none;html=1;rounded=0;exitX=0.5;exitY=0;exitDx=0;exitDy=0;" parent="1" source="vG6tSXVW1lOoziyycAbv-45" edge="1">
          <mxGeometry width="50" height="50" relative="1" as="geometry">
            <mxPoint x="229.5" y="180" as="sourcePoint" />
            <mxPoint x="230" y="160" as="targetPoint" />
          </mxGeometry>
        </mxCell>
        <mxCell id="vG6tSXVW1lOoziyycAbv-47" value="&lt;p style=&quot;margin: 0px; line-height: 100%;&quot; align=&quot;center&quot;&gt;약관동의(회원가입)&lt;/p&gt;&lt;p style=&quot;margin: 0px; line-height: 100%;&quot; align=&quot;center&quot;&gt;UserTerms.do&lt;br&gt;&lt;/p&gt;" style="rounded=0;whiteSpace=wrap;html=1;fontSize=20;" parent="1" vertex="1">
          <mxGeometry x="110" y="280" width="240" height="80" as="geometry" />
        </mxCell>
        <mxCell id="vG6tSXVW1lOoziyycAbv-48" value="" style="endArrow=none;html=1;rounded=0;exitX=0.5;exitY=0;exitDx=0;exitDy=0;" parent="1" source="vG6tSXVW1lOoziyycAbv-47" edge="1">
          <mxGeometry width="50" height="50" relative="1" as="geometry">
            <mxPoint x="229.5" y="280" as="sourcePoint" />
            <mxPoint x="230" y="260" as="targetPoint" />
          </mxGeometry>
        </mxCell>
        <mxCell id="vG6tSXVW1lOoziyycAbv-49" value="&lt;p style=&quot;margin: 0px; line-height: 100%;&quot; align=&quot;center&quot;&gt;회원가입&lt;/p&gt;&lt;p style=&quot;margin: 0px; line-height: 100%;&quot; align=&quot;center&quot;&gt;UserJoin.do&lt;br&gt;&lt;/p&gt;" style="rounded=0;whiteSpace=wrap;html=1;fontSize=20;" parent="1" vertex="1">
          <mxGeometry x="110" y="380" width="240" height="80" as="geometry" />
        </mxCell>
        <mxCell id="vG6tSXVW1lOoziyycAbv-50" value="" style="endArrow=none;html=1;rounded=0;exitX=0.5;exitY=0;exitDx=0;exitDy=0;" parent="1" source="vG6tSXVW1lOoziyycAbv-49" edge="1">
          <mxGeometry width="50" height="50" relative="1" as="geometry">
            <mxPoint x="229.5" y="380" as="sourcePoint" />
            <mxPoint x="230" y="360" as="targetPoint" />
          </mxGeometry>
        </mxCell>
        <mxCell id="vG6tSXVW1lOoziyycAbv-51" value="&lt;p style=&quot;margin: 0px; line-height: 100%;&quot; align=&quot;center&quot;&gt;마이페이지&lt;/p&gt;&lt;p style=&quot;margin: 0px; line-height: 100%;&quot; align=&quot;center&quot;&gt;MyPage.do?sid=&quot;sampleId&quot;&lt;br&gt;&lt;/p&gt;" style="rounded=0;whiteSpace=wrap;html=1;fontSize=20;" parent="1" vertex="1">
          <mxGeometry x="110" y="480" width="240" height="80" as="geometry" />
        </mxCell>
        <mxCell id="vG6tSXVW1lOoziyycAbv-52" value="" style="endArrow=none;html=1;rounded=0;exitX=0.5;exitY=0;exitDx=0;exitDy=0;" parent="1" source="vG6tSXVW1lOoziyycAbv-51" edge="1">
          <mxGeometry width="50" height="50" relative="1" as="geometry">
            <mxPoint x="229.5" y="480" as="sourcePoint" />
            <mxPoint x="230" y="460" as="targetPoint" />
          </mxGeometry>
        </mxCell>
        <mxCell id="vG6tSXVW1lOoziyycAbv-53" value="&lt;p style=&quot;margin: 0px; line-height: 100%;&quot; align=&quot;center&quot;&gt;회원정보수정UpdateUser.do?sid=&quot;sampleId&quot;&lt;br&gt;&lt;/p&gt;" style="rounded=0;whiteSpace=wrap;html=1;fontSize=20;" parent="1" vertex="1">
          <mxGeometry x="110" y="580" width="240" height="80" as="geometry" />
        </mxCell>
        <mxCell id="vG6tSXVW1lOoziyycAbv-54" value="" style="endArrow=none;html=1;rounded=0;exitX=0.5;exitY=0;exitDx=0;exitDy=0;" parent="1" source="vG6tSXVW1lOoziyycAbv-53" edge="1">
          <mxGeometry width="50" height="50" relative="1" as="geometry">
            <mxPoint x="229.5" y="580" as="sourcePoint" />
            <mxPoint x="230" y="560" as="targetPoint" />
          </mxGeometry>
        </mxCell>
        <mxCell id="vG6tSXVW1lOoziyycAbv-55" value="&lt;p style=&quot;margin: 0px; line-height: 100%;&quot; align=&quot;center&quot;&gt;회원탈퇴&lt;/p&gt;&lt;p style=&quot;margin: 0px; line-height: 100%;&quot; align=&quot;center&quot;&gt;DeleteUser.do?sid=&quot;sampleId&quot;&lt;br&gt;&lt;/p&gt;" style="rounded=0;whiteSpace=wrap;html=1;fontSize=20;" parent="1" vertex="1">
          <mxGeometry x="110" y="680" width="240" height="80" as="geometry" />
        </mxCell>
        <mxCell id="vG6tSXVW1lOoziyycAbv-56" value="" style="endArrow=none;html=1;rounded=0;exitX=0.5;exitY=0;exitDx=0;exitDy=0;" parent="1" source="vG6tSXVW1lOoziyycAbv-55" edge="1">
          <mxGeometry width="50" height="50" relative="1" as="geometry">
            <mxPoint x="229.5" y="680" as="sourcePoint" />
            <mxPoint x="230" y="660" as="targetPoint" />
          </mxGeometry>
        </mxCell>
        <mxCell id="vG6tSXVW1lOoziyycAbv-57" value="&lt;p style=&quot;margin: 0px; line-height: 100%;&quot; align=&quot;center&quot;&gt;내 Q&amp;amp;A 보기&lt;/p&gt;&lt;p style=&quot;margin: 0px; line-height: 100%;&quot; align=&quot;center&quot;&gt;QnaList.do?sid=&quot;sampleId&quot;&lt;br&gt;&lt;/p&gt;" style="rounded=0;whiteSpace=wrap;html=1;fontSize=20;" parent="1" vertex="1">
          <mxGeometry x="-150" y="680" width="240" height="80" as="geometry" />
        </mxCell>
        <mxCell id="vG6tSXVW1lOoziyycAbv-58" value="" style="endArrow=none;html=1;rounded=0;exitX=0.5;exitY=0;exitDx=0;exitDy=0;" parent="1" source="vG6tSXVW1lOoziyycAbv-57" edge="1">
          <mxGeometry width="50" height="50" relative="1" as="geometry">
            <mxPoint x="-30.5" y="680" as="sourcePoint" />
            <mxPoint x="-30" y="660" as="targetPoint" />
          </mxGeometry>
        </mxCell>
        <mxCell id="vG6tSXVW1lOoziyycAbv-59" value="&lt;p style=&quot;margin: 0px; line-height: 100%;&quot; align=&quot;center&quot;&gt;찜 목록 보기&lt;/p&gt;&lt;p style=&quot;margin: 0px; line-height: 100%;&quot; align=&quot;center&quot;&gt;PokeListbyMemberId.do?sid=&quot;sampleId&quot;&lt;/p&gt;" style="rounded=0;whiteSpace=wrap;html=1;fontSize=20;" parent="1" vertex="1">
          <mxGeometry x="110" y="780" width="240" height="80" as="geometry" />
        </mxCell>
        <mxCell id="vG6tSXVW1lOoziyycAbv-60" value="" style="endArrow=none;html=1;rounded=0;exitX=0.5;exitY=0;exitDx=0;exitDy=0;" parent="1" source="vG6tSXVW1lOoziyycAbv-59" edge="1">
          <mxGeometry width="50" height="50" relative="1" as="geometry">
            <mxPoint x="229.5" y="780" as="sourcePoint" />
            <mxPoint x="230" y="760" as="targetPoint" />
          </mxGeometry>
        </mxCell>
        <mxCell id="vG6tSXVW1lOoziyycAbv-61" value="&lt;p style=&quot;margin: 0px; line-height: 100%;&quot; align=&quot;center&quot;&gt;내 여행목록 보기&lt;br&gt;&lt;/p&gt;&lt;p style=&quot;margin: 0px; line-height: 100%;&quot; align=&quot;center&quot;&gt;MyVisitList.do?sid=&quot;sampleId&quot;&lt;/p&gt;" style="rounded=0;whiteSpace=wrap;html=1;fontSize=20;" parent="1" vertex="1">
          <mxGeometry x="110" y="880" width="240" height="80" as="geometry" />
        </mxCell>
        <mxCell id="vG6tSXVW1lOoziyycAbv-62" value="" style="endArrow=none;html=1;rounded=0;exitX=0.5;exitY=0;exitDx=0;exitDy=0;" parent="1" source="vG6tSXVW1lOoziyycAbv-61" edge="1">
          <mxGeometry width="50" height="50" relative="1" as="geometry">
            <mxPoint x="229.5" y="880" as="sourcePoint" />
            <mxPoint x="230" y="860" as="targetPoint" />
          </mxGeometry>
        </mxCell>
      </root>
    </mxGraphModel>
  </diagram>
</mxfile>
